<mxfile host="app.diagrams.net" modified="2021-11-10T17:31:59.123Z" agent="5.0 (Windows NT 10.0; Win64; x64) AppleWebKit/537.36 (KHTML, like Gecko) Chrome/95.0.4638.69 Safari/537.36" etag="jFEfR7J537m-2p2dO9A6" version="15.7.3" type="github">
  <diagram name="Page-1" id="90a13364-a465-7bf4-72fc-28e22215d7a0">
    <mxGraphModel dx="1536" dy="1080" grid="1" gridSize="10" guides="1" tooltips="1" connect="1" arrows="1" fold="1" page="1" pageScale="1.5" pageWidth="1169" pageHeight="826" background="none" math="0" shadow="0">
      <root>
        <mxCell id="0" style=";html=1;" />
        <mxCell id="1" style=";html=1;" parent="0" />
        <mxCell id="RDWv30sB7d1MF2ZzGaHx-12" style="edgeStyle=orthogonalEdgeStyle;rounded=0;orthogonalLoop=1;jettySize=auto;html=1;exitX=1;exitY=0.25;exitDx=0;exitDy=0;entryX=0;entryY=0.5;entryDx=0;entryDy=0;" edge="1" parent="1" source="RDWv30sB7d1MF2ZzGaHx-1" target="RDWv30sB7d1MF2ZzGaHx-11">
          <mxGeometry relative="1" as="geometry" />
        </mxCell>
        <mxCell id="RDWv30sB7d1MF2ZzGaHx-1" value="Power Regulation" style="rounded=0;whiteSpace=wrap;html=1;" vertex="1" parent="1">
          <mxGeometry x="360" y="400" width="120" height="80" as="geometry" />
        </mxCell>
        <mxCell id="RDWv30sB7d1MF2ZzGaHx-2" value="" style="endArrow=classic;html=1;rounded=0;" edge="1" parent="1">
          <mxGeometry width="50" height="50" relative="1" as="geometry">
            <mxPoint x="280" y="440" as="sourcePoint" />
            <mxPoint x="360" y="440" as="targetPoint" />
          </mxGeometry>
        </mxCell>
        <mxCell id="RDWv30sB7d1MF2ZzGaHx-3" value="+/-16V" style="ellipse;whiteSpace=wrap;html=1;" vertex="1" parent="1">
          <mxGeometry x="160" y="400" width="120" height="80" as="geometry" />
        </mxCell>
        <mxCell id="RDWv30sB7d1MF2ZzGaHx-4" value="" style="swimlane;startSize=0;fillColor=#dae8fc;strokeColor=#6c8ebf;" vertex="1" parent="1">
          <mxGeometry x="120" y="360" width="200" height="380" as="geometry" />
        </mxCell>
        <mxCell id="RDWv30sB7d1MF2ZzGaHx-5" value="500 Series Chassis" style="text;html=1;strokeColor=none;fillColor=none;align=center;verticalAlign=middle;whiteSpace=wrap;rounded=0;fontStyle=1" vertex="1" parent="RDWv30sB7d1MF2ZzGaHx-4">
          <mxGeometry width="200" height="30" as="geometry" />
        </mxCell>
        <mxCell id="RDWv30sB7d1MF2ZzGaHx-13" value="Bal Audio Input" style="ellipse;whiteSpace=wrap;html=1;" vertex="1" parent="RDWv30sB7d1MF2ZzGaHx-4">
          <mxGeometry x="40" y="160" width="120" height="80" as="geometry" />
        </mxCell>
        <mxCell id="RDWv30sB7d1MF2ZzGaHx-14" value="Bal Audio Output" style="ellipse;whiteSpace=wrap;html=1;" vertex="1" parent="RDWv30sB7d1MF2ZzGaHx-4">
          <mxGeometry x="40" y="280" width="120" height="80" as="geometry" />
        </mxCell>
        <mxCell id="RDWv30sB7d1MF2ZzGaHx-6" value="" style="swimlane;startSize=0;fillColor=#dae8fc;strokeColor=#6c8ebf;shadow=0;swimlaneLine=1;" vertex="1" parent="1">
          <mxGeometry x="840" y="360" width="200" height="540" as="geometry" />
        </mxCell>
        <mxCell id="RDWv30sB7d1MF2ZzGaHx-7" value="Front Panel" style="text;html=1;strokeColor=none;fillColor=none;align=center;verticalAlign=middle;whiteSpace=wrap;rounded=0;fontStyle=1" vertex="1" parent="RDWv30sB7d1MF2ZzGaHx-6">
          <mxGeometry width="200" height="30" as="geometry" />
        </mxCell>
        <mxCell id="RDWv30sB7d1MF2ZzGaHx-11" value="9V Outlet" style="ellipse;whiteSpace=wrap;html=1;aspect=fixed;" vertex="1" parent="RDWv30sB7d1MF2ZzGaHx-6">
          <mxGeometry x="60" y="40" width="80" height="80" as="geometry" />
        </mxCell>
        <mxCell id="RDWv30sB7d1MF2ZzGaHx-20" value="Unbalanced TS Output" style="ellipse;whiteSpace=wrap;html=1;aspect=fixed;" vertex="1" parent="RDWv30sB7d1MF2ZzGaHx-6">
          <mxGeometry x="60" y="200" width="80" height="80" as="geometry" />
        </mxCell>
        <mxCell id="RDWv30sB7d1MF2ZzGaHx-23" value="Send Level" style="ellipse;whiteSpace=wrap;html=1;aspect=fixed;dashed=1;" vertex="1" parent="RDWv30sB7d1MF2ZzGaHx-6">
          <mxGeometry x="70" y="130" width="60" height="60" as="geometry" />
        </mxCell>
        <mxCell id="RDWv30sB7d1MF2ZzGaHx-28" value="Wet/Dry" style="ellipse;whiteSpace=wrap;html=1;aspect=fixed;dashed=1;" vertex="1" parent="RDWv30sB7d1MF2ZzGaHx-6">
          <mxGeometry x="70" y="290" width="60" height="60" as="geometry" />
        </mxCell>
        <mxCell id="RDWv30sB7d1MF2ZzGaHx-31" value="Unbalanced TS Output" style="ellipse;whiteSpace=wrap;html=1;aspect=fixed;" vertex="1" parent="RDWv30sB7d1MF2ZzGaHx-6">
          <mxGeometry x="60" y="440" width="80" height="80" as="geometry" />
        </mxCell>
        <mxCell id="RDWv30sB7d1MF2ZzGaHx-32" value="Return Level" style="ellipse;whiteSpace=wrap;html=1;aspect=fixed;dashed=1;" vertex="1" parent="RDWv30sB7d1MF2ZzGaHx-6">
          <mxGeometry x="70" y="360" width="60" height="60" as="geometry" />
        </mxCell>
        <mxCell id="RDWv30sB7d1MF2ZzGaHx-8" value="" style="endArrow=classic;html=1;rounded=0;exitX=1;exitY=0.75;exitDx=0;exitDy=0;" edge="1" parent="1" source="RDWv30sB7d1MF2ZzGaHx-1">
          <mxGeometry width="50" height="50" relative="1" as="geometry">
            <mxPoint x="510" y="480" as="sourcePoint" />
            <mxPoint x="560" y="460" as="targetPoint" />
          </mxGeometry>
        </mxCell>
        <mxCell id="RDWv30sB7d1MF2ZzGaHx-9" value="+/-15V" style="ellipse;whiteSpace=wrap;html=1;" vertex="1" parent="1">
          <mxGeometry x="560" y="440" width="40" height="40" as="geometry" />
        </mxCell>
        <mxCell id="RDWv30sB7d1MF2ZzGaHx-15" value="&lt;i&gt;Rails for audio circuitry&lt;/i&gt;" style="text;html=1;strokeColor=none;fillColor=none;align=center;verticalAlign=middle;whiteSpace=wrap;rounded=0;" vertex="1" parent="1">
          <mxGeometry x="535" y="480" width="90" height="30" as="geometry" />
        </mxCell>
        <mxCell id="RDWv30sB7d1MF2ZzGaHx-19" style="edgeStyle=orthogonalEdgeStyle;rounded=0;orthogonalLoop=1;jettySize=auto;html=1;exitX=1;exitY=0.5;exitDx=0;exitDy=0;entryX=0;entryY=0.5;entryDx=0;entryDy=0;" edge="1" parent="1" source="RDWv30sB7d1MF2ZzGaHx-16" target="RDWv30sB7d1MF2ZzGaHx-18">
          <mxGeometry relative="1" as="geometry" />
        </mxCell>
        <mxCell id="RDWv30sB7d1MF2ZzGaHx-16" value="Unbalancer" style="rounded=0;whiteSpace=wrap;html=1;" vertex="1" parent="1">
          <mxGeometry x="360" y="520" width="120" height="80" as="geometry" />
        </mxCell>
        <mxCell id="RDWv30sB7d1MF2ZzGaHx-17" style="edgeStyle=orthogonalEdgeStyle;rounded=0;orthogonalLoop=1;jettySize=auto;html=1;exitX=1;exitY=0.5;exitDx=0;exitDy=0;entryX=0;entryY=0.5;entryDx=0;entryDy=0;" edge="1" parent="1" source="RDWv30sB7d1MF2ZzGaHx-13" target="RDWv30sB7d1MF2ZzGaHx-16">
          <mxGeometry relative="1" as="geometry" />
        </mxCell>
        <mxCell id="RDWv30sB7d1MF2ZzGaHx-21" style="edgeStyle=orthogonalEdgeStyle;rounded=0;orthogonalLoop=1;jettySize=auto;html=1;exitX=1;exitY=0.75;exitDx=0;exitDy=0;entryX=0;entryY=0.5;entryDx=0;entryDy=0;" edge="1" parent="1" source="RDWv30sB7d1MF2ZzGaHx-18" target="RDWv30sB7d1MF2ZzGaHx-20">
          <mxGeometry relative="1" as="geometry">
            <Array as="points">
              <mxPoint x="770" y="580" />
              <mxPoint x="770" y="600" />
            </Array>
          </mxGeometry>
        </mxCell>
        <mxCell id="RDWv30sB7d1MF2ZzGaHx-24" style="edgeStyle=orthogonalEdgeStyle;rounded=0;orthogonalLoop=1;jettySize=auto;html=1;exitX=1;exitY=0.25;exitDx=0;exitDy=0;entryX=0;entryY=0.5;entryDx=0;entryDy=0;dashed=1;startArrow=classic;startFill=1;" edge="1" parent="1" source="RDWv30sB7d1MF2ZzGaHx-18" target="RDWv30sB7d1MF2ZzGaHx-23">
          <mxGeometry relative="1" as="geometry" />
        </mxCell>
        <mxCell id="RDWv30sB7d1MF2ZzGaHx-18" value="Unbalanced Output Drive" style="rounded=0;whiteSpace=wrap;html=1;" vertex="1" parent="1">
          <mxGeometry x="520" y="520" width="120" height="80" as="geometry" />
        </mxCell>
        <mxCell id="RDWv30sB7d1MF2ZzGaHx-26" style="edgeStyle=orthogonalEdgeStyle;rounded=0;orthogonalLoop=1;jettySize=auto;html=1;exitX=0;exitY=0.5;exitDx=0;exitDy=0;entryX=1;entryY=0.5;entryDx=0;entryDy=0;startArrow=none;startFill=0;" edge="1" parent="1" source="RDWv30sB7d1MF2ZzGaHx-25" target="RDWv30sB7d1MF2ZzGaHx-14">
          <mxGeometry relative="1" as="geometry">
            <Array as="points">
              <mxPoint x="340" y="830" />
              <mxPoint x="340" y="680" />
            </Array>
          </mxGeometry>
        </mxCell>
        <mxCell id="RDWv30sB7d1MF2ZzGaHx-25" value="Rebalancer" style="rounded=0;whiteSpace=wrap;html=1;" vertex="1" parent="1">
          <mxGeometry x="360" y="800" width="120" height="80" as="geometry" />
        </mxCell>
        <mxCell id="RDWv30sB7d1MF2ZzGaHx-29" style="edgeStyle=orthogonalEdgeStyle;rounded=0;orthogonalLoop=1;jettySize=auto;html=1;exitX=1;exitY=0.5;exitDx=0;exitDy=0;entryX=0;entryY=0.5;entryDx=0;entryDy=0;startArrow=classic;startFill=1;dashed=1;" edge="1" parent="1" source="RDWv30sB7d1MF2ZzGaHx-27" target="RDWv30sB7d1MF2ZzGaHx-28">
          <mxGeometry relative="1" as="geometry" />
        </mxCell>
        <mxCell id="RDWv30sB7d1MF2ZzGaHx-35" style="edgeStyle=orthogonalEdgeStyle;rounded=0;orthogonalLoop=1;jettySize=auto;html=1;exitX=1;exitY=0.25;exitDx=0;exitDy=0;startArrow=none;startFill=0;entryX=1;entryY=0.25;entryDx=0;entryDy=0;" edge="1" parent="1" target="RDWv30sB7d1MF2ZzGaHx-27">
          <mxGeometry relative="1" as="geometry">
            <mxPoint x="720" y="580" as="sourcePoint" />
            <Array as="points">
              <mxPoint x="720" y="660" />
            </Array>
          </mxGeometry>
        </mxCell>
        <mxCell id="RDWv30sB7d1MF2ZzGaHx-37" style="edgeStyle=orthogonalEdgeStyle;rounded=0;orthogonalLoop=1;jettySize=auto;html=1;exitX=0.25;exitY=1;exitDx=0;exitDy=0;entryX=1;entryY=0.5;entryDx=0;entryDy=0;startArrow=none;startFill=0;" edge="1" parent="1" source="RDWv30sB7d1MF2ZzGaHx-27" target="RDWv30sB7d1MF2ZzGaHx-25">
          <mxGeometry relative="1" as="geometry" />
        </mxCell>
        <mxCell id="RDWv30sB7d1MF2ZzGaHx-27" value="Wet/Dry Mix" style="rounded=0;whiteSpace=wrap;html=1;" vertex="1" parent="1">
          <mxGeometry x="520" y="640" width="120" height="80" as="geometry" />
        </mxCell>
        <mxCell id="RDWv30sB7d1MF2ZzGaHx-33" style="edgeStyle=orthogonalEdgeStyle;rounded=0;orthogonalLoop=1;jettySize=auto;html=1;exitX=0.5;exitY=0;exitDx=0;exitDy=0;entryX=0;entryY=0.5;entryDx=0;entryDy=0;dashed=1;startArrow=classic;startFill=1;" edge="1" parent="1" source="RDWv30sB7d1MF2ZzGaHx-30" target="RDWv30sB7d1MF2ZzGaHx-32">
          <mxGeometry relative="1" as="geometry" />
        </mxCell>
        <mxCell id="RDWv30sB7d1MF2ZzGaHx-36" style="edgeStyle=orthogonalEdgeStyle;rounded=0;orthogonalLoop=1;jettySize=auto;html=1;exitX=0;exitY=0.5;exitDx=0;exitDy=0;entryX=0.75;entryY=1;entryDx=0;entryDy=0;startArrow=none;startFill=0;" edge="1" parent="1" source="RDWv30sB7d1MF2ZzGaHx-30" target="RDWv30sB7d1MF2ZzGaHx-27">
          <mxGeometry relative="1" as="geometry" />
        </mxCell>
        <mxCell id="RDWv30sB7d1MF2ZzGaHx-30" value="Unbalanced Input Drive" style="rounded=0;whiteSpace=wrap;html=1;" vertex="1" parent="1">
          <mxGeometry x="680" y="800" width="120" height="80" as="geometry" />
        </mxCell>
        <mxCell id="RDWv30sB7d1MF2ZzGaHx-34" style="edgeStyle=orthogonalEdgeStyle;rounded=0;orthogonalLoop=1;jettySize=auto;html=1;exitX=0;exitY=0.5;exitDx=0;exitDy=0;startArrow=none;startFill=0;" edge="1" parent="1" source="RDWv30sB7d1MF2ZzGaHx-31" target="RDWv30sB7d1MF2ZzGaHx-30">
          <mxGeometry relative="1" as="geometry" />
        </mxCell>
      </root>
    </mxGraphModel>
  </diagram>
</mxfile>
